<svg width="72" height="71" viewBox="0 0 72 71" fill="none" xmlns="http://www.w3.org/2000/svg">
<path d="M36.2483 66C53.1205 66 66.9344 52.5175 66.9344 35.7191C66.9344 18.9208 53.1205 5.43823 36.2483 5.43823C19.376 5.43823 5.56207 18.9208 5.56207 35.7191C5.56207 52.5175 19.376 66 36.2483 66Z" fill="#333333" stroke="#FFCC34" stroke-width="10"/>
<path d="M41.7557 20.0567L38.1402 24.1427C37.3767 23.5887 36.4944 23.1404 35.4932 22.7977C34.4968 22.4322 33.3873 22.3163 32.1646 22.4499C30.9419 22.5835 29.6119 23.1105 28.1744 24.0309C26.2066 25.291 24.8638 26.7903 24.1459 28.5289C23.4328 30.2448 23.5287 31.787 24.4334 33.1557C25.2375 34.3722 26.3192 35.0471 27.6785 35.1802C29.0377 35.3133 30.8217 35.0072 33.0304 34.2619L38.571 32.3669C41.9029 31.2173 44.7442 30.9031 47.095 31.4245C49.4367 31.932 51.3432 33.2986 52.8145 35.5244C54.0207 37.3493 54.5687 39.3201 54.4585 41.4371C54.3622 43.5451 53.6461 45.617 52.3104 47.6529C50.9746 49.6888 49.0577 51.5066 46.5595 53.1062C43.2799 55.2062 40.0994 56.2393 37.018 56.2054C33.9367 56.1715 31.2143 54.9829 28.851 52.6397L32.7726 48.4758C34.3524 49.9041 36.0466 50.6491 37.8552 50.7109C39.6779 50.7638 41.601 50.1423 43.6246 48.8465C45.9274 47.372 47.4358 45.7175 48.1498 43.8829C48.8687 42.0256 48.7757 40.4126 47.871 39.044C47.14 37.938 46.1369 37.262 44.8619 37.0159C43.5778 36.756 42.0029 36.9577 40.1373 37.6211L33.9557 39.8084C30.554 41.0028 27.6826 41.3165 25.3415 40.7496C23.0051 40.16 21.1104 38.7661 19.6574 36.568C18.4694 34.7708 17.9279 32.8548 18.0329 30.82C18.1518 28.7762 18.837 26.7929 20.0885 24.8699C21.354 22.9381 23.1172 21.2483 25.3781 19.8006C28.56 17.7631 31.5151 16.8547 34.2432 17.0754C36.9853 17.2872 39.4894 18.281 41.7557 20.0567Z" fill="white"/>
</svg>
